<?xml version="1.0" encoding="UTF-8"?>
<svg xmlns="http://www.w3.org/2000/svg" width="38" height="21" version="1.1" viewBox="0 0 38 21">
  <defs>
    <style>
      .cls-1 {
        fill: #fff;
      }
    </style>
  </defs>
  <!-- Generator: Adobe Illustrator 28.7.1, SVG Export Plug-In . SVG Version: 1.2.0 Build 142)  -->
  <g>
    <g id="Layer_1">
      <path class="cls-1" d="M20.6,6.4h-2.4c-.3,0-.6.3-.6.6v1.4c0,.3-.3.6-.6.6h-1.6c-.3,0-.6.3-.6.6v4.4c0,.3.3.6.6.6h4.4c.3,0,.6-.3.6-.6v-1.4c0-.3.3-.6.6-.6h1.6c.3,0,.6-.3.6-.6v-4.4c0-.3-.3-.6-.6-.6h-1.9ZM18.5,9.4h1.1c.3,0,.6.3.6.6v1.1c0,.3-.3.6-.6.6h-1.1c-.3,0-.6-.3-.6-.6v-1.1c0-.3.3-.6.6-.6ZM37.4,9h-1.6c-.3,0-.6-.3-.6-.6v-1.8c0-.3-.3-.6-.6-.6h-1.6c-.3,0-.6-.3-.6-.6v-1.8c0-.3-.3-.6-.6-.6h-4.6c-.3,0-.6-.3-.6-.6V.6c0-.3-.3-.6-.6-.6h-14c-.3,0-.6.3-.6.6v1.8c0,.3-.3.6-.6.6h-4.6c-.3,0-.6.3-.6.6v1.8c0,.3-.3.6-.6.6h-1.6c-.3,0-.6.3-.6.6v1.8c0,.3-.3.6-.6.6H.6c-.3,0-.6.3-.6.6v1.8c0,.3.3.6.6.6h1.6c.3,0,.6.3.6.6v1.8c0,.3.3.6.6.6h1.6c.3,0,.6.3.6.6v1.8c0,.3.3.6.6.6h4.6c.3,0,.6.3.6.6v1.8c0,.3.3.6.6.6h14c.3,0,.6-.3.6-.6v-1.8c0-.3.3-.6.6-.6h4.6c.3,0,.6-.3.6-.6v-1.8c0-.3.3-.6.6-.6h1.6c.3,0,.6-.3.6-.6v-1.8c0-.3.3-.6.6-.6h1.6c.3,0,.6-.3.6-.6v-1.8c0-.3-.3-.6-.6-.6ZM32.1,12.6v1.8c0,.3-.3.6-.6.6h-4.6c-.3,0-.6.3-.6.6v1.8c0,.3-.3.6-.6.6h-13.4c-.3,0-.6-.3-.6-.6v-1.8c0-.3-.3-.6-.6-.6h-4.6c-.3,0-.6-.3-.6-.6v-1.8c0-.3-.3-.6-.6-.6h-1.6c-.3,0-.6-.3-.6-.6v-1.8c0-.3.3-.6.6-.6h1.6c.3,0,.6-.3.6-.6v-1.8c0-.3.3-.6.6-.6h4.6c.3,0,.6-.3.6-.6v-1.8c0-.3.3-.6.6-.6h13.4c.3,0,.6.3.6.6v1.8c0,.3.3.6.6.6h4.6c.3,0,.6.3.6.6v1.8c0,.3.3.6.6.6h1.6c.3,0,.6.3.6.6v1.8c0,.3-.3.6-.6.6h-1.6c-.3,0-.6.3-.6.6Z"/>
    </g>
  </g>
</svg>